<svg xmlns="http://www.w3.org/2000/svg" version="1.1" xmlns:xlink="http://www.w3.org/1999/xlink" xmlns:svgjs="http://svgjs.dev/svgjs" width="2000" height="671" viewBox="0 0 2000 671"><g transform="matrix(1,0,0,1,-1.2121212121212466,-1.1141970512451849)"><svg viewBox="0 0 396 133" data-background-color="#ffffff" preserveAspectRatio="xMidYMid meet" height="671" width="2000" xmlns="http://www.w3.org/2000/svg" xmlns:xlink="http://www.w3.org/1999/xlink"><g id="tight-bounds" transform="matrix(1,0,0,1,0.2400000000000091,0.2208468074748282)"><svg viewBox="0 0 395.52 132.55830638505032" height="132.55830638505032" width="395.52"><g><svg viewBox="0 0 659.4405955871832 221.0111461179862" height="132.55830638505032" width="395.52"><g transform="matrix(1,0,0,1,263.92059558718324,65.06528108819018)"><svg viewBox="0 0 395.52000000000004 90.88058394160585" height="90.88058394160585" width="395.52000000000004"><g id="textblocktransform"><svg viewBox="0 0 395.52000000000004 90.88058394160585" height="90.88058394160585" width="395.52000000000004" id="textblock"><g><svg viewBox="0 0 395.52000000000004 90.88058394160585" height="90.88058394160585" width="395.52000000000004"><g transform="matrix(1,0,0,1,0,0)"><svg width="395.52000000000004" viewBox="3.08 -36.89 160.53 36.89" height="90.88058394160585" data-palette-color="#007bff"><path d="M14.14-0.49L3.08-0.49 3.08-34.69 6.98-36.4 13.13-36.4Q16.97-36.4 19.63-33.74 22.29-31.08 22.29-27.71L22.29-27.71Q22.29-23.9 19.68-21.24L19.68-21.24 19.53-21.09Q20.75-20.39 21.83-19.29L21.83-19.29Q25-16.09 25-11.5L25-11.5Q25-6.96 21.8-3.71L21.8-3.71Q18.65-0.49 14.14-0.49L14.14-0.49ZM6.98-18.6L6.98-4.39 14.21-4.39Q17.11-4.39 19.19-6.49 21.26-8.59 21.26-11.5L21.26-11.5Q21.26-14.45 19.19-16.53 17.11-18.6 14.21-18.6L14.21-18.6 13.26-18.6 6.98-18.6ZM6.98-22.51L13.18-22.51Q15.67-22.53 16.89-23.8L16.89-23.8Q18.38-25.37 18.38-27.49L18.38-27.49Q18.38-27.61 18.38-27.76L18.38-27.76Q18.38-29.52 16.82-30.93L16.82-30.93Q15.21-32.45 13.06-32.5L13.06-32.5 6.98-32.5 6.98-22.51ZM36.81-18.09L36.81-9.25Q36.81-7.01 38.45-5.49L38.45-5.49Q40.11-3.96 42.23-3.96L42.23-3.96Q44.28-3.96 45.85-5.49L45.85-5.49Q47.36-6.98 47.41-9.25L47.41-9.25 47.41-18.09Q47.36-20.36 45.85-21.85L45.85-21.85Q44.28-23.39 41.94-23.39L41.94-23.39Q39.89-23.39 38.35-21.85L38.35-21.85Q36.84-20.34 36.81-18.24L36.81-18.24 36.81-18.09ZM32.91-9.18L32.91-18.16Q32.91-21.97 35.59-24.66 38.28-27.34 42.09-27.34 45.9-27.34 48.61-24.66 51.32-21.97 51.32-18.16L51.32-18.16 51.32-9.18Q51.32-5.37 48.61-2.69 45.9 0 42.09 0 38.28 0 35.59-2.69 32.91-5.37 32.91-9.18L32.91-9.18ZM64.89-18.09L64.89-9.25Q64.89-7.01 66.52-5.49L66.52-5.49Q68.18-3.96 70.31-3.96L70.31-3.96Q72.36-3.96 73.92-5.49L73.92-5.49Q75.43-6.98 75.48-9.25L75.48-9.25 75.48-18.09Q75.43-20.36 73.92-21.85L73.92-21.85Q72.36-23.39 70.01-23.39L70.01-23.39Q67.96-23.39 66.43-21.85L66.43-21.85Q64.91-20.34 64.89-18.24L64.89-18.24 64.89-18.09ZM60.98-9.18L60.98-18.16Q60.98-21.97 63.67-24.66 66.35-27.34 70.16-27.34 73.97-27.34 76.68-24.66 79.39-21.97 79.39-18.16L79.39-18.16 79.39-9.18Q79.39-5.37 76.68-2.69 73.97 0 70.16 0 66.35 0 63.67-2.69 60.98-5.37 60.98-9.18L60.98-9.18ZM92.96-1.71L89.06 0 89.06-35.18 92.96-36.89 92.96-16.87 103.75-27.34 107.46-25.63 99.99-18.24Q102.9-17.7 104.75-15.82L104.75-15.82Q107.46-13.13 107.46-9.33L107.46-9.33 107.46-1.71 103.56 0 103.56-9.25Q103.51-11.5 101.99-13.01 100.48-14.53 98.23-14.55L98.23-14.55Q96.09-14.55 94.5-13.01L94.5-13.01Q92.96-11.52 92.96-9.4L92.96-9.4 92.96-9.25 92.96-1.71ZM115.69-32.5L117.4-36.4 136.98-36.4 135.27-32.5 128.29-32.5 128.29-4.39 136.98-4.39 135.27-0.49 115.69-0.49 117.4-4.39 124.38-4.39 124.38-32.5 115.69-32.5ZM159.7-9.42L159.7-9.42Q159.7-9.42 163.61-11.13L163.61-11.13 163.61-9.18Q163.61-5.37 160.93-2.69 158.24 0 154.43 0 150.62 0 147.91-2.69 145.2-5.37 145.2-9.18L145.2-9.18 145.2-22.95 142.18-22.95 143.88-26.86 145.2-26.86 145.2-35.18 149.11-36.89 149.11-26.86 161.51-26.86 159.8-22.95 149.11-22.95 149.11-9.25Q149.16-6.96 150.67-5.49L150.67-5.49Q152.26-3.96 154.38-3.96L154.38-3.96Q156.55-3.96 158.14-5.52L158.14-5.52Q159.7-7.03 159.7-9.42Z" opacity="1" transform="matrix(1,0,0,1,0,0)" fill="#007bff" class="wordmark-text-0" data-fill-palette-color="primary" id="text-0"></path></svg></g></svg></g></svg></g></svg></g><g><svg viewBox="0 0 221.0111461179862 221.0111461179862" height="221.0111461179862" width="221.0111461179862"><g><svg></svg></g><g id="icon-0"><svg viewBox="0 0 221.0111461179862 221.0111461179862" height="221.0111461179862" width="221.0111461179862"><g><path d="M0 110.506c0-61.031 49.475-110.506 110.506-110.506 61.031 0 110.506 49.475 110.505 110.506 0 61.031-49.475 110.506-110.505 110.505-61.031 0-110.506-49.475-110.506-110.505zM110.506 212.815c56.504 0 102.31-45.806 102.309-102.309 0-56.504-45.806-102.31-102.309-102.31-56.504 0-102.31 45.806-102.31 102.31 0 56.504 45.806 102.31 102.31 102.309z" data-fill-palette-color="accent" fill="#007bff" stroke="transparent"></path><ellipse rx="109.40051732840315" ry="109.40051732840315" cx="110.5055730589931" cy="110.5055730589931" fill="#007bff" stroke="transparent" stroke-width="0" fill-opacity="1" data-fill-palette-color="accent"></ellipse></g><g transform="matrix(1,0,0,1,76.44879948288492,46.80352507466644)"><svg viewBox="0 0 68.11354715221634 127.40409596865331" height="127.40409596865331" width="68.11354715221634"><g><svg xmlns="http://www.w3.org/2000/svg" xmlns:xlink="http://www.w3.org/1999/xlink" version="1.1" x="0" y="0" viewBox="25.8 8.9 38.60000000000001 72.19999999999999" enable-background="new 0 0 90 90" xml:space="preserve" height="127.40409596865331" width="68.11354715221634" class="icon-dxe-0" data-fill-palette-color="quaternary" id="dxe-0"><path d="M45 35.5C51.8 35.5 57.4 29.9 57.4 23 57.4 20.1 56.6 18.4 55.9 17.6 53.9 14.5 47.3 14.3 45.3 14.3H45C38.3 14.3 35.4 16.4 34.4 17.3L34.3 17.4C34.1 17.6 34.1 17.7 34.1 17.7 33.4 18.6 32.6 20.2 32.6 23.2 32.6 29.9 38.2 35.5 45 35.5M34.8 18L35 17.8 35.1 17.7C35.8 17.1 38.5 15 45 15H45.3C46.6 15 53.4 15.1 55.2 17.9 55.7 18.5 56.5 20 56.5 22.8 56.5 29.2 51.3 34.4 45 34.4S33.5 29.2 33.5 22.8C33.5 20.1 34.3 18.7 34.8 18M35.7 41.2V37.7C35.7 37.4 36 37.1 36.3 37.1S36.9 37.4 36.9 37.7V41.2C36.9 41.5 36.6 41.8 36.3 41.8S35.7 41.5 35.7 41.2M53.1 41.2V37.7C53.1 37.4 53.4 37.1 53.7 37.1S54.3 37.4 54.3 37.7V41.2C54.3 41.5 54 41.8 53.7 41.8S53.1 41.5 53.1 41.2M63.7 48.2L63.5 48V43.5C63.5 41.5 63.1 39.7 62.3 37.9V25C62.3 23.9 61.4 23 60.3 23H59.9C59.6 15.1 53 8.9 45 8.9S30.4 15.2 30.2 23H29.7C28.6 23 27.7 23.9 27.7 25V37.9C26.9 39.7 26.5 41.6 26.5 43.5V48L26.3 48.2C25.9 48.7 25.8 49.2 25.8 49.8L26.4 54.8C26.5 55.9 27.5 56.7 28.6 56.7H28.9C29.1 56.7 29.3 56.6 29.5 56.6V65.8C29.5 67.4 30.8 68.8 32.5 68.8H32.9V81.1H57.4V68.8H57.8C59.4 68.8 60.8 67.5 60.8 65.8V56.6C61 56.6 61.1 56.6 61.4 56.7H61.6C62.7 56.7 63.6 55.9 63.8 54.8L64.4 49.8C64.2 49.2 64.1 48.7 63.7 48.2M60.2 24.3C60.6 24.3 60.9 24.6 60.9 25V35.5C59.9 34.1 58.6 32.8 57.1 31.7 58.6 29.6 59.6 27.1 59.8 24.4H60.2zM45 10.2C52.4 10.2 58.4 16.1 58.4 23.3S52.4 36.4 45 36.4 31.6 30.5 31.6 23.3 37.6 10.2 45 10.2M29.1 25C29.1 24.6 29.4 24.3 29.8 24.3H30.3C30.5 27 31.4 29.5 33 31.6 31.5 32.7 30.2 34 29.2 35.4V25zM33.7 32.7C36.4 35.8 40.5 37.8 45 37.8S53.6 35.8 56.3 32.7C58.2 34.1 59.7 35.8 60.7 37.7 61.7 39.5 62.2 41.5 62.2 43.5V47.4C62 47.4 61.6 47.3 61.5 47.3H60.7V42C60.7 40.4 59.4 39 57.7 39H55.3V41.2C55.3 42 54.6 42.7 53.8 42.7S52.3 42 52.3 41.2V39H37.8V41.2C37.8 42 37.1 42.7 36.3 42.7S34.8 42 34.8 41.2V39H32.4C30.8 39 29.4 40.3 29.4 42V47.3H28.6C28.5 47.3 28.1 47.4 27.9 47.4V43.5C27.8 39.3 30 35.4 33.7 32.7M28.7 55.5C28.2 55.6 27.7 55.2 27.6 54.7L27 49.7C27 49.4 27 49.2 27.2 49S27.6 48.7 27.9 48.6C27.9 48.6 28.6 48.5 28.7 48.5H29.1C30.9 48.5 32.3 49.8 32.5 51.6 32.7 53.3 31.6 54.9 30 55.3 29.8 55.3 29.2 55.4 28.7 55.5M44.3 79.8H34.1V78.2H44.4V79.8zM34.1 76.8C34.4 74.2 36.6 72.1 39.2 72.1S44 74.1 44.3 76.8zM39.2 70.8C37.1 70.8 35.3 71.8 34.1 73.4V68.8H44.4V73.4C43.2 71.8 41.3 70.8 39.2 70.8M55.9 79.8H45.7V78.2H56V79.8zM45.7 76.8C46 74.2 48.2 72.1 50.8 72.1S55.6 74.1 55.9 76.8zM55.9 73.4C54.7 71.8 52.9 70.8 50.8 70.8S46.8 71.9 45.6 73.5V68.8H55.8V73.4zM57.7 66.9H32.3C31.7 66.9 31.3 66.4 31.3 65.9V56.1C33 55.2 33.9 53.4 33.7 51.4 33.5 49.8 32.6 48.5 31.3 47.8V46.3H58.6V47.8C57.3 48.5 56.4 49.8 56.2 51.4 56 53.3 57 55.2 58.6 56.1V65.9C58.7 66.4 58.2 66.9 57.7 66.9M63 49.7L62.4 54.7C62.3 55.2 61.9 55.5 61.5 55.5H61.4C60.9 55.4 60.2 55.3 60.1 55.3 58.4 54.8 57.4 53.3 57.6 51.6 57.8 49.7 59.5 48.3 61.4 48.6 61.5 48.6 62.2 48.7 62.2 48.7 62.5 48.7 62.7 48.9 62.8 49.1 62.9 49.2 63 49.4 63 49.7" fill="#ffffff" data-fill-palette-color="quaternary"></path></svg></g></svg></g></svg></g></svg></g></svg></g><defs></defs></svg><rect width="395.52" height="132.55830638505032" fill="none" stroke="none" visibility="hidden"></rect></g></svg></g></svg>