<?xml version="1.0" encoding="UTF-8"?>
<svg version="1.1" xmlns="http://www.w3.org/2000/svg" width="688" height="684">
<path d="M0 0 C0.87156738 0.27956543 1.74313477 0.55913086 2.64111328 0.84716797 C15.50774773 5.01598673 27.7916482 10.19437685 40 16 C40.69013184 16.32581055 41.38026367 16.65162109 42.09130859 16.98730469 C60.39559674 25.68646158 77.75824889 35.87747274 94 48 C94.58716797 48.43554199 95.17433594 48.87108398 95.77929688 49.31982422 C115.36902312 63.91114093 134.12709122 80.40240029 150 99 C150.80050781 99.91136719 151.60101562 100.82273437 152.42578125 101.76171875 C182.22149772 135.94514176 204.04538329 177.02454457 218 220 C218.29986816 220.91378418 218.59973633 221.82756836 218.90869141 222.76904297 C244.37909661 301.69881541 236.80843266 392.60174964 201 467 C200.62294922 467.80034668 200.24589844 468.60069336 199.85742188 469.42529297 C189.81109404 490.71211874 177.45054172 510.43324336 163 529 C162.56316895 529.56138672 162.12633789 530.12277344 161.67626953 530.70117188 C156.83574685 536.86719265 151.6401042 542.68453738 146.33203125 548.44921875 C144.36500972 550.60075151 142.45446871 552.78291973 140.5625 555 C133.65357951 562.93548178 126.02468619 570.20767633 118 577 C116.63875 578.19496094 116.63875 578.19496094 115.25 579.4140625 C46.9728518 638.95681437 -43.52833951 665.42206051 -133.12890625 659.53125 C-159.26660203 657.41819091 -185.09313999 652.16727882 -210 644 C-211.47847412 643.52336914 -211.47847412 643.52336914 -212.98681641 643.03710938 C-256.05552099 628.97442496 -296.35344005 605.29094603 -330 575 C-330.83072021 574.25387451 -330.83072021 574.25387451 -331.67822266 573.49267578 C-341.9732161 564.20600103 -352.12507422 554.67436939 -361 544 C-361.44537109 543.46842285 -361.89074219 542.9368457 -362.34960938 542.38916016 C-377.44553685 524.31994036 -390.22225529 505.39207551 -402 485 C-402.41088867 484.29842773 -402.82177734 483.59685547 -403.24511719 482.87402344 C-445.34276147 410.59023422 -453.23630471 317.78963927 -433.15478516 237.62597656 C-431.30882209 230.68329784 -429.20880906 223.83471127 -427 217 C-426.7417041 216.17628906 -426.4834082 215.35257813 -426.21728516 214.50390625 C-419.15678256 192.12070726 -409.14373979 170.0783866 -397 150 C-396.53770996 149.23042969 -396.07541992 148.46085938 -395.59912109 147.66796875 C-384.46207869 129.2537337 -371.60793529 112.22248748 -357.1015625 96.3203125 C-355.27717206 94.30602269 -353.50906198 92.25851386 -351.75 90.1875 C-348.49859063 86.45861093 -345.05112077 82.94259537 -341.5625 79.4375 C-340.77407715 78.64218872 -340.77407715 78.64218872 -339.96972656 77.83081055 C-335.81234372 73.68937837 -331.45395879 69.81867208 -327 66 C-326.36570068 65.4536792 -325.73140137 64.9073584 -325.07788086 64.34448242 C-314.24150648 55.0761479 -302.94073674 46.78665514 -291 39 C-290.30519531 38.54641113 -289.61039063 38.09282227 -288.89453125 37.62548828 C-284.31708659 34.65833907 -279.68363003 31.79621411 -275 29 C-274.00709961 28.40372803 -274.00709961 28.40372803 -272.99414062 27.79541016 C-193.23871623 -19.61899884 -90.61415015 -29.09428948 0 0 Z " fill="#007BFE" transform="translate(449,23)"/>
<path d="M0 0 C13.46562685 12.7523593 26.17481607 29.19567412 26.92578125 48.6171875 C26.93606355 51.31115088 26.90158431 53.99517429 26.8125 56.6875 C28.73307292 56.78515625 30.65364583 56.8828125 32.57421875 56.98046875 C36.00850591 58.06529593 37.54082354 59.92847286 39.8125 62.6875 C40.42481995 66.06877136 40.42481995 66.06877136 40.40844727 69.98120117 C40.4125058 70.69738617 40.41656433 71.41357117 40.42074585 72.15145874 C40.42625025 73.70103663 40.42029047 75.25068895 40.40408516 76.80019188 C40.37858756 79.26122921 40.38348897 81.7205975 40.39598083 84.18171692 C40.41671062 89.41299542 40.39708694 94.64375578 40.375 99.875 C40.35382628 105.9234408 40.34949555 111.97133951 40.37550163 118.01976967 C40.37883576 120.42952431 40.35772774 122.83821855 40.33509827 125.24784851 C40.32187684 132.53888205 40.5283495 138.92746365 43.83334351 145.60978699 C48.37306076 155.2428024 47.18179876 167.38897958 47.26879883 177.81542969 C47.29047036 179.99972919 47.32984428 182.1831827 47.37109375 184.3671875 C47.39127563 186.29667236 47.39127563 186.29667236 47.41186523 188.26513672 C47.83719414 191.89844606 48.79769473 193.69666563 50.8125 196.6875 C51.90824988 204.61557265 50.70308243 212.81611069 49.5625 220.6875 C49.45341309 221.48816895 49.34432617 222.28883789 49.23193359 223.11376953 C48.4221741 228.16441887 47.09453509 231.61172898 43.8125 235.6875 C39.64794535 238.27627722 36.50344524 237.4409109 31.8125 236.6875 C31.82249275 237.68228867 31.82249275 237.68228867 31.83268738 238.69717407 C31.89912504 245.60779974 31.94433582 252.51833448 31.97729492 259.42919922 C31.99236905 262.00736171 32.01283167 264.58549862 32.03881836 267.16357422 C32.07526086 270.87213461 32.09224052 274.58035554 32.10546875 278.2890625 C32.12095261 279.43927887 32.13643646 280.58949524 32.15238953 281.77456665 C32.15449949 291.83742136 32.15449949 291.83742136 28.8125 296.6875 C24.02584854 301.22222243 20.39621662 302.6875 13.8125 302.6875 C13.8125 324.4675 13.8125 346.2475 13.8125 368.6875 C-29.7475 368.6875 -73.3075 368.6875 -118.1875 368.6875 C-118.1875 346.9075 -118.1875 325.1275 -118.1875 302.6875 C-120.1675 302.6875 -122.1475 302.6875 -124.1875 302.6875 C-130.27225929 300.12549609 -133.63041601 296.81628359 -136.1875 290.6875 C-136.83720834 286.54693004 -136.77232624 282.49514936 -136.67578125 278.3125 C-136.66870651 277.1474292 -136.66163177 275.9823584 -136.65434265 274.78198242 C-136.62649094 271.08315162 -136.56376498 267.38586857 -136.5 263.6875 C-136.47490542 261.17059487 -136.4520943 258.65366587 -136.43164062 256.13671875 C-136.37669432 249.98645655 -136.29315892 243.83708888 -136.1875 237.6875 C-137.43917969 237.72101563 -138.69085938 237.75453125 -139.98046875 237.7890625 C-144.45627127 237.90890891 -146.78186062 236.6971348 -150.1875 233.6875 C-153.20462067 228.78467891 -153.88282515 224.35614366 -154.375 218.75 C-154.45395508 217.92185791 -154.53291016 217.09371582 -154.61425781 216.24047852 C-155.27423224 208.79433848 -155.89281902 201.14521142 -155.1875 193.6875 C-154.1975 192.6975 -154.1975 192.6975 -153.1875 191.6875 C-152.87997319 188.45027568 -152.87997319 188.45027568 -152.9140625 184.6171875 C-152.89371846 183.14712856 -152.87286693 181.67707658 -152.8515625 180.20703125 C-152.8292871 177.90830677 -152.81262326 175.60986136 -152.80664062 173.31103516 C-152.7010362 149.20682619 -152.7010362 149.20682619 -147.13694763 139.93733215 C-145.77997097 136.72181018 -145.94331982 133.91106021 -145.94799805 130.42797852 C-145.94598389 129.70390808 -145.94396973 128.97983765 -145.94189453 128.23382568 C-145.93835523 126.66512496 -145.93910848 125.09640995 -145.94367027 123.52771187 C-145.94927087 121.04328625 -145.9400932 118.5593262 -145.9264679 116.07493591 C-145.88936785 109.01274519 -145.87080619 101.95071321 -145.88208008 94.88842773 C-145.88793479 90.56528275 -145.86965498 86.24279385 -145.83619118 81.91978264 C-145.82824275 80.27440156 -145.82950669 78.62894888 -145.84021568 76.98358345 C-145.85456185 74.68046987 -145.83825645 72.37941616 -145.81518555 70.07641602 C-145.81455612 68.76721695 -145.8139267 67.45801788 -145.8132782 66.10914612 C-145.0350299 61.85382009 -143.458997 60.411113 -140.1875 57.6875 C-139.6925 57.1925 -139.6925 57.1925 -139.1875 56.6875 C-136.85452567 56.64657063 -134.52044775 56.64508277 -132.1875 56.6875 C-132.2184375 55.5221875 -132.249375 54.356875 -132.28125 53.15625 C-132.25131349 36.12237812 -123.46309311 19.01043081 -112.1875 6.6875 C-111.59710938 6.00558594 -111.00671875 5.32367188 -110.3984375 4.62109375 C-82.17093173 -26.06881146 -30.86413211 -27.00611559 0 0 Z " fill="#F8FBFF" transform="translate(396.1875,170.3125)"/>
<path d="M0 0 C48.18 0 96.36 0 146 0 C146 9 146 9 144.35546875 11.19921875 C143.28232422 11.93591797 143.28232422 11.93591797 142.1875 12.6875 C138.40353011 15.35488861 136.69104541 17.64789233 135 22 C134.63596694 24.69779541 134.42816251 27.05951506 134.4375 29.75 C134.43919189 30.45157227 134.44088379 31.15314453 134.44262695 31.87597656 C134.66461372 38.33512318 136.65727406 43.13916142 141 48 C141.84989502 48.43779785 142.69979004 48.8755957 143.57543945 49.32666016 C147.61767183 53.7836579 146.67164181 58.99353895 146.59375 64.7890625 C146.59379028 66.04383392 146.59383057 67.29860535 146.59387207 68.59140015 C146.58850979 71.24344081 146.57356119 73.89327826 146.54199219 76.54492188 C146.50223213 79.94603839 146.49795695 83.34604957 146.50545502 86.74735451 C146.50925798 89.9905176 146.48845804 93.23346949 146.46875 96.4765625 C146.46854858 97.70049713 146.46834717 98.92443176 146.46813965 100.18545532 C146.45222778 101.31357635 146.43631592 102.44169739 146.41992188 103.60400391 C146.41150269 104.60009674 146.4030835 105.59618958 146.39440918 106.62246704 C146.26425415 107.40705292 146.13409912 108.19163879 146 109 C142.58054432 111.27963712 141.36265631 111.25265467 137.34448242 111.26069641 C136.16671234 111.26778122 134.98894226 111.27486603 133.77548218 111.28216553 C132.48187775 111.27968811 131.18827332 111.27721069 129.85546875 111.2746582 C128.48059817 111.27900494 127.10573002 111.28418796 125.73086548 111.29014587 C121.9953964 111.30355015 118.2600284 111.30411306 114.52453995 111.30158257 C111.40806225 111.300514 108.2916051 111.30539323 105.1751318 111.310188 C97.82474675 111.32128776 90.47441281 111.32171772 83.12402344 111.31567383 C75.53553887 111.30963024 67.94723954 111.32195365 60.35878658 111.3432439 C53.84746841 111.36084188 47.33620929 111.36686419 40.8248682 111.36360615 C36.93416878 111.36179053 33.04360153 111.36445729 29.15292358 111.37832069 C25.49539933 111.39086551 21.83816463 111.38898705 18.18064499 111.37590981 C16.19526165 111.37240403 14.2098696 111.38374611 12.22451782 111.39547729 C10.4578627 111.38495583 10.4578627 111.38495583 8.65551758 111.3742218 C7.62977127 111.37438954 6.60402496 111.37455729 5.54719543 111.37473011 C3 111 3 111 1.17244244 109.6290884 C-0.51245014 107.28795943 -0.41575361 105.49630682 -0.4675293 102.62988281 C-0.49312424 101.53154114 -0.51871918 100.43319946 -0.54508972 99.30157471 C-0.5547023 98.1140863 -0.56431488 96.9265979 -0.57421875 95.703125 C-0.5889473 94.48099304 -0.60367584 93.25886108 -0.61885071 91.99969482 C-0.64282548 89.4106676 -0.65823003 86.82154911 -0.66577148 84.23242188 C-0.68734526 80.2783612 -0.76749753 76.32820447 -0.84960938 72.375 C-0.86560713 69.85939546 -0.87809109 67.34376562 -0.88671875 64.828125 C-0.91859787 63.64873352 -0.95047699 62.46934204 -0.98332214 61.25421143 C-0.91709517 53.15020463 -0.91709517 53.15020463 1.75302124 49.8013916 C3.89916992 47.96777344 3.89916992 47.96777344 6.03703308 46.50140381 C10.17656295 43.33522416 11.65262001 38.53547463 12.33984375 33.51953125 C12.62123724 26.25957926 11.15619152 19.38129246 6.5625 13.625 C4.21229326 10.9916059 4.21229326 10.9916059 1.6875 9.625 C1.130625 9.08875 0.57375 8.5525 0 8 C0 5.36 0 2.72 0 0 Z " fill="#017BFF" transform="translate(270,352)"/>
<path d="M0 0 C1.01956284 0.00223572 1.01956284 0.00223572 2.0597229 0.0045166 C12.24903583 0.04465382 21.84356079 0.54240599 31.6875 3.3125 C32.77546875 3.60253906 33.8634375 3.89257812 34.984375 4.19140625 C45.15065645 7.2134725 52.11364299 11.26190927 57.49609375 20.5546875 C60.3174016 27.08532141 61.02546703 33.16592621 60.9375 40.1875 C60.92626099 41.37702271 60.92626099 41.37702271 60.91479492 42.59057617 C60.59164629 60.20488483 53.90173214 74.59390228 42 87.5 C32.38500824 96.68137448 19.14613645 103.76559428 5.6875 104.3125 C4.71039063 104.35246094 3.73328125 104.39242187 2.7265625 104.43359375 C-13.86323456 104.76854215 -28.22870181 100.91891408 -40.875 89.8125 C-42.37587112 88.33421724 -43.85707964 86.83555141 -45.3125 85.3125 C-45.94414062 84.70019531 -46.57578125 84.08789062 -47.2265625 83.45703125 C-58.71198522 71.59213421 -62.82244679 55.47084852 -62.73681641 39.40087891 C-62.49095467 31.15543527 -61.12035692 22.72131387 -56.1875 15.875 C-40.76678511 2.13044977 -19.82479072 -0.08314845 0 0 Z " fill="#017BFF" transform="translate(344.3125,183.6875)"/>
<path d="M0 0 C14.73312795 11.20802372 24.42944461 25.97380428 28.296875 44.125 C29.79200581 66.16232194 26.11181307 85.87459775 11.33984375 102.9609375 C-0.38194982 115.3775219 -13.44338735 121.77038061 -29.703125 126.125 C-30.35410156 126.30458252 -31.00507813 126.48416504 -31.67578125 126.66918945 C-47.97637003 130.33407376 -67.06367349 125.55873891 -81.0234375 117.1171875 C-98.12751135 105.98109077 -108.34339683 91.60186933 -113.703125 72.125 C-113.88198242 71.50254395 -114.06083984 70.88008789 -114.24511719 70.23876953 C-118.08715155 52.50724849 -113.68123384 34.41108151 -104.703125 19.125 C-102.24256232 15.58159637 -99.58541956 12.331408 -96.703125 9.125 C-96.18492187 8.51398438 -95.66671875 7.90296875 -95.1328125 7.2734375 C-70.51205979 -19.82176271 -28.63186827 -19.86025545 0 0 Z M-98.3828125 27.7421875 C-106.16707161 37.36887481 -105.75563594 51.42827333 -104.703125 63.125 C-102.60118426 77.72236411 -95.95177947 88.82324369 -85.703125 99.125 C-85.11144531 99.75148438 -84.51976562 100.37796875 -83.91015625 101.0234375 C-72.80526395 111.85867458 -58.18944056 116.02234386 -43.078125 116.375 C-25.61654789 116.02245034 -11.26594568 109.19557783 1.484375 97.4375 C15.15000735 83.12646818 18.79323665 66.5002738 18.5078125 47.48046875 C18.19920665 38.57090353 15.33355063 30.78836441 9.296875 24.125 C-4.8031717 12.65594028 -24.86828867 11.77272958 -42.203125 11.875 C-44.16958984 11.86339844 -44.16958984 11.86339844 -46.17578125 11.8515625 C-64.28260724 11.88752442 -84.72009202 14.58784731 -98.3828125 27.7421875 Z " fill="#077FFF" transform="translate(386.703125,171.875)"/>
<path d="M0 0 C0.9075 0.804375 1.815 1.60875 2.75 2.4375 C4.16083034 3.63192808 5.57832254 4.81850354 7 6 C7.83789062 6.69996094 8.67578125 7.39992188 9.5390625 8.12109375 C29.45084764 23.94630039 51.22602787 28.34569038 76.2890625 25.6015625 C92.97014637 22.85114824 110.76134414 13.69207422 121 0 C134.90020606 6.36580233 144.85420397 21.62953615 150.35546875 35.390625 C152.74821688 42.40474587 154.1293119 48.61170274 154.09765625 56.05078125 C154.09553383 57.03899117 154.09553383 57.03899117 154.09336853 58.04716492 C154.087805 60.13565762 154.07525947 62.22404011 154.0625 64.3125 C154.05748028 65.73502449 154.0529182 67.15755066 154.04882812 68.58007812 C154.03784757 72.05342077 154.02060835 75.52669961 154 79 C151.36 78.67 148.72 78.34 146 78 C145.99589111 77.07251953 145.99178223 76.14503906 145.98754883 75.18945312 C145.96041618 71.71473758 145.91117554 68.24174184 145.84741211 64.76757812 C145.82435957 63.27029124 145.80986654 61.77284514 145.80444336 60.27539062 C145.99596761 49.19655104 145.99596761 49.19655104 141.44848633 39.39770508 C136.64168982 34.75942596 131.44766384 34.50003664 125.125 34.3125 C123.949375 34.26125977 123.949375 34.26125977 122.75 34.20898438 C120.83381252 34.12719588 118.91693285 34.0619054 117 34 C117.04640625 34.95261719 117.0928125 35.90523438 117.140625 36.88671875 C117.17671875 38.14097656 117.2128125 39.39523437 117.25 40.6875 C117.29640625 41.92886719 117.3428125 43.17023438 117.390625 44.44921875 C116.93439856 48.59631712 116.03224836 50.17979698 113 53 C111 53.62890625 111 53.62890625 109 53.5625 C108.34 53.56378906 107.68 53.56507813 107 53.56640625 C105 53 105 53 101 49 C101 44.05 101 39.1 101 34 C75.26 34 49.52 34 23 34 C23 38.62 23 43.24 23 48 C19 53 19 53 17 53.62890625 C16.01 53.59603516 16.01 53.59603516 15 53.5625 C14.34 53.56378906 13.68 53.56507813 13 53.56640625 C9.9793118 52.71093791 8.83458235 51.54487418 7 49 C6.7088479 46.26317029 6.61677582 43.96059961 6.75 41.25 C6.76804687 40.55261719 6.78609375 39.85523438 6.8046875 39.13671875 C6.85161446 37.42388461 6.92335395 35.71176176 7 34 C4.10275937 34.08724816 1.20849865 34.19415927 -1.6875 34.3125 C-2.91243164 34.34633789 -2.91243164 34.34633789 -4.16210938 34.38085938 C-8.97008829 34.59497989 -11.97587063 35.13001863 -16 38 C-16.66 38 -17.32 38 -18 38 C-18.309375 38.61875 -18.61875 39.2375 -18.9375 39.875 C-19.625 41.25 -20.3125 42.625 -21 44 C-21.15644172 46.55106029 -21.25821389 49.07918663 -21.31640625 51.6328125 C-21.33718735 52.38464813 -21.35796844 53.13648376 -21.37937927 53.91110229 C-21.44482705 56.31564085 -21.50373738 58.72028967 -21.5625 61.125 C-21.60568977 62.75391771 -21.64930421 64.38282422 -21.69335938 66.01171875 C-21.80050351 70.00769915 -21.90178433 74.00379059 -22 78 C-24.64 78 -27.28 78 -30 78 C-30.10032167 73.53838681 -30.17213763 69.07740433 -30.21972656 64.61499023 C-30.23960437 63.10315488 -30.26671673 61.5913939 -30.30175781 60.07983398 C-30.75480287 40.00594056 -24.30667066 23.96163024 -10.4375 9.2890625 C-3.73746518 2.49164345 -3.73746518 2.49164345 0 0 Z " fill="#077EFF" transform="translate(282,279)"/>
<path d="M0 0 C8.03979285 6.74177028 12.58586386 14.74051926 14.18359375 25.11328125 C15.78933749 45.61224703 11.63335785 64.0827506 -1.81640625 80.11328125 C-11.97310233 91.96919645 -26.31219202 100.50574584 -41.87890625 102.92578125 C-43.17828125 102.98765625 -44.47765625 103.04953125 -45.81640625 103.11328125 C-46.75484375 103.16355469 -47.69328125 103.21382813 -48.66015625 103.265625 C-66.9349303 103.8200781 -83.77947534 98.23181003 -97.65234375 86.21484375 C-111.30285373 72.95857233 -118.71429189 55.76544527 -119.00390625 36.86328125 C-118.88026345 25.53310499 -117.89416244 15.38909837 -110.81640625 6.11328125 C-107.73246953 3.25618401 -104.47868836 1.15985066 -100.81640625 -0.88671875 C-100.06359375 -1.3353125 -99.31078125 -1.78390625 -98.53515625 -2.24609375 C-72.16353284 -16.11688269 -25.53085642 -17.10319508 0 0 Z M-107.49609375 8.73046875 C-115.28035286 18.35715606 -114.86891719 32.41655458 -113.81640625 44.11328125 C-111.71446551 58.71064536 -105.06506072 69.81152494 -94.81640625 80.11328125 C-94.22472656 80.73976563 -93.63304687 81.36625 -93.0234375 82.01171875 C-81.9185452 92.84695583 -67.30272181 97.01062511 -52.19140625 97.36328125 C-34.72982914 97.01073159 -20.37922693 90.18385908 -7.62890625 78.42578125 C6.0367261 64.11474943 9.6799554 47.48855505 9.39453125 28.46875 C9.0859254 19.55918478 6.22026938 11.77664566 0.18359375 5.11328125 C-13.91645295 -6.35577847 -33.98156992 -7.23898917 -51.31640625 -7.13671875 C-53.28287109 -7.14832031 -53.28287109 -7.14832031 -55.2890625 -7.16015625 C-73.39588849 -7.12419433 -93.83337327 -4.42387144 -107.49609375 8.73046875 Z " fill="#F1F7FF" transform="translate(395.81640625,190.88671875)"/>
<path d="M0 0 C7.72827603 4.55322809 11.54369325 10.63819496 14.73046875 19.01953125 C14.73046875 20.33953125 14.73046875 21.65953125 14.73046875 23.01953125 C-3.41953125 23.01953125 -21.56953125 23.01953125 -40.26953125 23.01953125 C-38.86099647 13.15978779 -34.71306988 7.84492356 -27.296875 1.4296875 C-19.82369746 -3.76841865 -8.17829897 -3.81886455 0 0 Z " fill="#067EFF" transform="translate(387.26953125,492.98046875)"/>
<path d="M0 0 C6.13253325 4.06835376 10.56678353 9.33668665 12.99609375 16.32421875 C13.49109375 19.29421875 13.49109375 19.29421875 13.99609375 22.32421875 C-4.15390625 22.32421875 -22.30390625 22.32421875 -41.00390625 22.32421875 C-39.76334346 13.6402792 -37.01686733 7.32959511 -30.00390625 1.82421875 C-21.44499911 -4.3096647 -9.27662978 -4.85108163 0 0 Z " fill="#057EFF" transform="translate(326.00390625,493.67578125)"/>
<path d="M0 0 C5.23872588 2.43226559 9.39841957 6.79683915 12 12 C12.68911981 19.44475339 12.63396217 24.9883734 8 31 C3.26008143 35.38442467 -0.27384301 37.27919421 -6.75 37.125 C-8.22726563 37.09792969 -8.22726563 37.09792969 -9.734375 37.0703125 C-10.48203125 37.04710937 -11.2296875 37.02390625 -12 37 C-14.46604339 31.84495587 -15.63225214 27.35667045 -16.1875 21.6875 C-16.26500488 20.94419434 -16.34250977 20.20088867 -16.42236328 19.43505859 C-17.74744969 6.05314197 -17.74744969 6.05314197 -17 3 C-12.54655378 -1.74249201 -5.98097764 -0.66372445 0 0 Z " fill="#037CFF" transform="translate(264,364)"/>
<path d="M0 0 C2.5 1.125 2.5 1.125 3.5 3.125 C3.7841814 9.66865055 3.02112512 15.96213438 2.125 22.4375 C1.93550781 23.91959961 1.93550781 23.91959961 1.7421875 25.43164062 C1.61328125 26.37845703 1.484375 27.32527344 1.3515625 28.30078125 C1.23635254 29.15583252 1.12114258 30.01088379 1.00244141 30.8918457 C0.5 33.125 0.5 33.125 -1.5 36.125 C-15.25342357 35.89749976 -15.25342357 35.89749976 -20.1328125 31.625 C-24.98313806 26.30349996 -26.24464713 21.9708954 -25.94140625 14.83984375 C-25.0783481 9.53165424 -22.67124824 6.060243 -18.703125 2.5234375 C-12.59839404 -1.84754987 -7.08941272 -1.77235318 0 0 Z " fill="#047DFF" transform="translate(436.5,364.875)"/>
<path d="M0 0 C18.15 0 36.3 0 55 0 C55 7.59 55 15.18 55 23 C52.36 21.02 49.72 19.04 47 17 C38.15098817 11.18184238 28.28662117 10.50793435 18 12 C10.76299367 14.18627195 5.27786932 18.72213068 0 24 C0 16.08 0 8.16 0 0 Z " fill="#027CFF" transform="translate(285,473)"/>
<path d="M0 0 C17.82 0 35.64 0 54 0 C54 7.26 54 14.52 54 22 C50 20 50 20 47.8125 18.125 C39.58394379 11.90786864 31.18335698 10.77877958 21.06103516 11.67773438 C12.40812115 13.03071311 6.44734365 18.47370545 0 24 C0 16.08 0 8.16 0 0 Z " fill="#037CFF" transform="translate(347,473)"/>
<path d="M0 0 C4.875 0.875 4.875 0.875 6 2 C6.09370624 3.77991924 6.11744271 5.56356739 6.11352539 7.34594727 C6.11344986 8.4870546 6.11337433 9.62816193 6.11329651 10.80384827 C6.10813522 12.0454924 6.10297394 13.28713654 6.09765625 14.56640625 C6.0962413 15.83016586 6.09482635 17.09392548 6.09336853 18.39598083 C6.08870582 21.76124889 6.0797148 25.1264499 6.06866455 28.49169922 C6.05844846 31.9234967 6.05387049 35.35530109 6.04882812 38.78710938 C6.0377738 45.52475824 6.0210171 52.26237525 6 59 C2.90011285 56.56091575 0.19087747 54.23752068 -2.3125 51.1875 C-5.86144161 47.02101128 -9.79734218 43.49311818 -14 40 C-12.6573242 36.49301097 -11.11965858 33.11605572 -9.48706055 29.73510742 C-4.81946738 20.02892938 -1.91888501 10.61030532 0 0 Z " fill="#087FFF" transform="translate(423,234)"/>
<path d="M0 0 C1.2065625 0.0309375 1.2065625 0.0309375 2.4375 0.0625 C2.58445312 1.04347656 2.73140625 2.02445313 2.8828125 3.03515625 C4.94598328 15.80481219 8.29072781 27.75922929 16.4375 38.0625 C16.4375 38.7225 16.4375 39.3825 16.4375 40.0625 C14.71484375 41.54296875 14.71484375 41.54296875 12.375 43.25 C8.00703368 46.54657836 4.21544872 50.11909367 0.4375 54.0625 C-0.8944392 55.39722601 -2.22762356 56.73071156 -3.5625 58.0625 C-3.58562883 50.64790058 -3.60341785 43.23330889 -3.61431217 35.81868076 C-3.61953982 32.37609652 -3.62663531 28.93353688 -3.63793945 25.4909668 C-3.65084235 21.53694957 -3.65572918 17.58294244 -3.66015625 13.62890625 C-3.66531754 12.38726212 -3.67047882 11.14561798 -3.67579651 9.86634827 C-3.67587204 8.72524094 -3.67594757 7.58413361 -3.67602539 6.40844727 C-3.678246 5.398069 -3.68046661 4.38769073 -3.68275452 3.34669495 C-3.51134914 0.09090619 -3.27957149 0.07998955 0 0 Z " fill="#037DFF" transform="translate(262.5625,233.9375)"/>
<path d="M0 0 C18.48 0 36.96 0 56 0 C56 2.97 56 5.94 56 9 C37.52 9 19.04 9 0 9 C0 6.03 0 3.06 0 0 Z " fill="#0E82FF" transform="translate(347,523)"/>
<path d="M0 0 C18.15 0 36.3 0 55 0 C55 2.97 55 5.94 55 9 C36.85 9 18.7 9 0 9 C0 6.03 0 3.06 0 0 Z " fill="#0B80FF" transform="translate(285,523)"/>
<path d="M0 0 C1.65 0.33 3.3 0.66 5 1 C5 8.59 5 16.18 5 24 C3.68 24.33 2.36 24.66 1 25 C-1 23 -1 23 -1.24291992 20.76928711 C-1.23881104 19.8644458 -1.23470215 18.95960449 -1.23046875 18.02734375 C-1.22853516 17.04572266 -1.22660156 16.06410156 -1.22460938 15.05273438 C-1.21236328 14.02470703 -1.20011719 12.99667969 -1.1875 11.9375 C-1.18685547 10.90560547 -1.18621094 9.87371094 -1.18554688 8.81054688 C-1.14015997 1.14015997 -1.14015997 1.14015997 0 0 Z " fill="#FAFCFF" transform="translate(388,303)"/>
<path d="M0 0 C1.67542976 0.28604898 3.34385343 0.61781233 5 1 C5.05787784 4.62493334 5.0935542 8.24974857 5.125 11.875 C5.14175781 12.90753906 5.15851563 13.94007813 5.17578125 15.00390625 C5.18222656 15.99003906 5.18867188 16.97617187 5.1953125 17.9921875 C5.20578613 18.90339355 5.21625977 19.81459961 5.22705078 20.75341797 C5 23 5 23 3 25 C0.875 24.625 0.875 24.625 -1 24 C-1.02887236 20.18751574 -1.04675492 16.3750593 -1.0625 12.5625 C-1.07087891 11.47388672 -1.07925781 10.38527344 -1.08789062 9.26367188 C-1.09111328 8.22919922 -1.09433594 7.19472656 -1.09765625 6.12890625 C-1.10289307 5.17056885 -1.10812988 4.21223145 -1.11352539 3.22485352 C-1 1 -1 1 0 0 Z " fill="#F8FBFF" transform="translate(295,303)"/>
</svg>
